<mxfile host="Electron" modified="2023-05-28T19:20:14.511Z" agent="Mozilla/5.0 (Windows NT 10.0; Win64; x64) AppleWebKit/537.36 (KHTML, like Gecko) draw.io/21.2.8 Chrome/112.0.5615.165 Electron/24.2.0 Safari/537.36" etag="zZPeVRPKkt0flaiwGyGn" version="21.2.8" type="device">
  <diagram name="Página-1" id="vUGLkvW11eCOKC16Dlat">
    <mxGraphModel dx="1036" dy="606" grid="1" gridSize="10" guides="1" tooltips="1" connect="1" arrows="1" fold="1" page="1" pageScale="1" pageWidth="827" pageHeight="1169" math="0" shadow="0">
      <root>
        <mxCell id="0" />
        <mxCell id="1" parent="0" />
        <mxCell id="Wl3SrOmknFKyQczUdGOH-12" style="edgeStyle=orthogonalEdgeStyle;rounded=0;orthogonalLoop=1;jettySize=auto;html=1;exitX=0.5;exitY=1;exitDx=0;exitDy=0;" edge="1" parent="1" source="Wl3SrOmknFKyQczUdGOH-1">
          <mxGeometry relative="1" as="geometry">
            <mxPoint x="425" y="160" as="targetPoint" />
            <Array as="points">
              <mxPoint x="425" y="140" />
              <mxPoint x="425" y="140" />
            </Array>
          </mxGeometry>
        </mxCell>
        <mxCell id="Wl3SrOmknFKyQczUdGOH-13" style="edgeStyle=orthogonalEdgeStyle;rounded=0;orthogonalLoop=1;jettySize=auto;html=1;" edge="1" parent="1" source="Wl3SrOmknFKyQczUdGOH-1" target="Wl3SrOmknFKyQczUdGOH-2">
          <mxGeometry relative="1" as="geometry" />
        </mxCell>
        <mxCell id="Wl3SrOmknFKyQczUdGOH-1" value="&lt;div style=&quot;text-align: justify;&quot;&gt;&lt;b style=&quot;font-size: 10px; background-color: initial;&quot;&gt;&lt;i&gt;&lt;u&gt;¿QUE QUIERES HACER?&lt;/u&gt;&lt;/i&gt;&lt;/b&gt;&lt;/div&gt;&lt;font style=&quot;font-size: 10px;&quot;&gt;&lt;div style=&quot;text-align: justify;&quot;&gt;&lt;span style=&quot;background-color: initial;&quot;&gt;1. Cargar el fichero para analizar y consultar los datos&lt;/span&gt;&lt;/div&gt;&lt;div style=&quot;text-align: justify;&quot;&gt;&lt;span style=&quot;background-color: initial;&quot;&gt;2. No acceder a los datos&lt;/span&gt;&lt;/div&gt;&lt;/font&gt;" style="rounded=1;whiteSpace=wrap;html=1;" vertex="1" parent="1">
          <mxGeometry x="280" y="10" width="290" height="80" as="geometry" />
        </mxCell>
        <mxCell id="Wl3SrOmknFKyQczUdGOH-2" value="&lt;div style=&quot;text-align: justify;&quot;&gt;&lt;span style=&quot;font-size: 10px; background-color: initial;&quot;&gt;El programa se finaliza sin cargar los datos.&lt;/span&gt;&lt;/div&gt;" style="rounded=1;whiteSpace=wrap;html=1;" vertex="1" parent="1">
          <mxGeometry x="600" y="110" width="130" height="60" as="geometry" />
        </mxCell>
        <mxCell id="Wl3SrOmknFKyQczUdGOH-11" style="edgeStyle=orthogonalEdgeStyle;rounded=0;orthogonalLoop=1;jettySize=auto;html=1;entryX=0.5;entryY=0;entryDx=0;entryDy=0;" edge="1" parent="1" source="Wl3SrOmknFKyQczUdGOH-3" target="Wl3SrOmknFKyQczUdGOH-7">
          <mxGeometry relative="1" as="geometry" />
        </mxCell>
        <mxCell id="Wl3SrOmknFKyQczUdGOH-14" style="edgeStyle=orthogonalEdgeStyle;rounded=0;orthogonalLoop=1;jettySize=auto;html=1;" edge="1" parent="1" source="Wl3SrOmknFKyQczUdGOH-3" target="Wl3SrOmknFKyQczUdGOH-6">
          <mxGeometry relative="1" as="geometry" />
        </mxCell>
        <mxCell id="Wl3SrOmknFKyQczUdGOH-15" style="edgeStyle=orthogonalEdgeStyle;rounded=0;orthogonalLoop=1;jettySize=auto;html=1;entryX=0.5;entryY=0;entryDx=0;entryDy=0;" edge="1" parent="1" source="Wl3SrOmknFKyQczUdGOH-3" target="Wl3SrOmknFKyQczUdGOH-4">
          <mxGeometry relative="1" as="geometry" />
        </mxCell>
        <mxCell id="Wl3SrOmknFKyQczUdGOH-16" style="edgeStyle=orthogonalEdgeStyle;rounded=0;orthogonalLoop=1;jettySize=auto;html=1;entryX=0.5;entryY=0;entryDx=0;entryDy=0;" edge="1" parent="1" source="Wl3SrOmknFKyQczUdGOH-3" target="Wl3SrOmknFKyQczUdGOH-5">
          <mxGeometry relative="1" as="geometry" />
        </mxCell>
        <mxCell id="Wl3SrOmknFKyQczUdGOH-3" value="&lt;div style=&quot;text-align: justify;&quot;&gt;&lt;u style=&quot;background-color: initial; font-style: italic; font-weight: bold;&quot;&gt;MENU PRINCIPAL&lt;/u&gt;&lt;/div&gt;&lt;div style=&quot;text-align: justify;&quot;&gt;1.&lt;/div&gt;&lt;div style=&quot;text-align: justify;&quot;&gt;2.&lt;/div&gt;&lt;div style=&quot;text-align: justify;&quot;&gt;3.&lt;/div&gt;&lt;div style=&quot;text-align: justify;&quot;&gt;4.&lt;/div&gt;&lt;div style=&quot;text-align: justify;&quot;&gt;5. Salir&lt;/div&gt;" style="rounded=1;whiteSpace=wrap;html=1;" vertex="1" parent="1">
          <mxGeometry x="335" y="140" width="180" height="100" as="geometry" />
        </mxCell>
        <mxCell id="Wl3SrOmknFKyQczUdGOH-4" value="" style="rhombus;whiteSpace=wrap;html=1;" vertex="1" parent="1">
          <mxGeometry x="80" y="300" width="80" height="80" as="geometry" />
        </mxCell>
        <mxCell id="Wl3SrOmknFKyQczUdGOH-5" value="" style="rhombus;whiteSpace=wrap;html=1;" vertex="1" parent="1">
          <mxGeometry x="260" y="300" width="80" height="80" as="geometry" />
        </mxCell>
        <mxCell id="Wl3SrOmknFKyQczUdGOH-6" value="" style="rhombus;whiteSpace=wrap;html=1;" vertex="1" parent="1">
          <mxGeometry x="440" y="300" width="80" height="80" as="geometry" />
        </mxCell>
        <mxCell id="Wl3SrOmknFKyQczUdGOH-7" value="" style="rhombus;whiteSpace=wrap;html=1;" vertex="1" parent="1">
          <mxGeometry x="620" y="300" width="80" height="80" as="geometry" />
        </mxCell>
        <mxCell id="Wl3SrOmknFKyQczUdGOH-17" value="" style="rounded=1;whiteSpace=wrap;html=1;" vertex="1" parent="1">
          <mxGeometry x="40" y="390" width="70" height="40" as="geometry" />
        </mxCell>
        <mxCell id="Wl3SrOmknFKyQczUdGOH-18" value="" style="rounded=1;whiteSpace=wrap;html=1;" vertex="1" parent="1">
          <mxGeometry x="130" y="390" width="70" height="40" as="geometry" />
        </mxCell>
        <mxCell id="Wl3SrOmknFKyQczUdGOH-19" value="" style="rounded=0;whiteSpace=wrap;html=1;" vertex="1" parent="1">
          <mxGeometry x="250" y="690" width="120" height="60" as="geometry" />
        </mxCell>
        <mxCell id="Wl3SrOmknFKyQczUdGOH-20" value="" style="rounded=1;whiteSpace=wrap;html=1;" vertex="1" parent="1">
          <mxGeometry x="220" y="390" width="70" height="40" as="geometry" />
        </mxCell>
        <mxCell id="Wl3SrOmknFKyQczUdGOH-21" value="" style="rounded=1;whiteSpace=wrap;html=1;" vertex="1" parent="1">
          <mxGeometry x="310" y="390" width="70" height="40" as="geometry" />
        </mxCell>
        <mxCell id="Wl3SrOmknFKyQczUdGOH-22" value="&lt;h1&gt;Red Electrica Espanola&lt;/h1&gt;&lt;p&gt;En este programa, podra ver los datos de la red electrica española en 2021 y 2022.&lt;/p&gt;" style="text;html=1;strokeColor=none;fillColor=none;spacing=5;spacingTop=-20;whiteSpace=wrap;overflow=hidden;rounded=0;" vertex="1" parent="1">
          <mxGeometry x="50" y="30" width="190" height="120" as="geometry" />
        </mxCell>
        <mxCell id="Wl3SrOmknFKyQczUdGOH-23" value="2" style="text;html=1;strokeColor=none;fillColor=none;align=center;verticalAlign=middle;whiteSpace=wrap;rounded=0;" vertex="1" parent="1">
          <mxGeometry x="590" y="30" width="60" height="30" as="geometry" />
        </mxCell>
        <mxCell id="Wl3SrOmknFKyQczUdGOH-24" value="1" style="text;html=1;strokeColor=none;fillColor=none;align=center;verticalAlign=middle;whiteSpace=wrap;rounded=0;" vertex="1" parent="1">
          <mxGeometry x="384" y="110" width="60" height="30" as="geometry" />
        </mxCell>
        <mxCell id="Wl3SrOmknFKyQczUdGOH-27" value="" style="rounded=1;whiteSpace=wrap;html=1;" vertex="1" parent="1">
          <mxGeometry x="490" y="390" width="70" height="40" as="geometry" />
        </mxCell>
        <mxCell id="Wl3SrOmknFKyQczUdGOH-28" value="" style="rounded=1;whiteSpace=wrap;html=1;" vertex="1" parent="1">
          <mxGeometry x="400" y="390" width="70" height="40" as="geometry" />
        </mxCell>
        <mxCell id="Wl3SrOmknFKyQczUdGOH-29" value="" style="rounded=1;whiteSpace=wrap;html=1;" vertex="1" parent="1">
          <mxGeometry x="580" y="390" width="70" height="40" as="geometry" />
        </mxCell>
        <mxCell id="Wl3SrOmknFKyQczUdGOH-30" value="" style="rounded=1;whiteSpace=wrap;html=1;" vertex="1" parent="1">
          <mxGeometry x="670" y="390" width="70" height="40" as="geometry" />
        </mxCell>
        <mxCell id="Wl3SrOmknFKyQczUdGOH-36" value="" style="endArrow=classic;html=1;rounded=0;entryX=0.5;entryY=0;entryDx=0;entryDy=0;" edge="1" parent="1" source="Wl3SrOmknFKyQczUdGOH-5" target="Wl3SrOmknFKyQczUdGOH-21">
          <mxGeometry width="50" height="50" relative="1" as="geometry">
            <mxPoint x="390" y="190" as="sourcePoint" />
            <mxPoint x="440" y="140" as="targetPoint" />
          </mxGeometry>
        </mxCell>
        <mxCell id="Wl3SrOmknFKyQczUdGOH-38" value="" style="endArrow=classic;html=1;rounded=0;entryX=0.5;entryY=0;entryDx=0;entryDy=0;" edge="1" parent="1" source="Wl3SrOmknFKyQczUdGOH-5" target="Wl3SrOmknFKyQczUdGOH-20">
          <mxGeometry width="50" height="50" relative="1" as="geometry">
            <mxPoint x="390" y="190" as="sourcePoint" />
            <mxPoint x="440" y="140" as="targetPoint" />
          </mxGeometry>
        </mxCell>
        <mxCell id="Wl3SrOmknFKyQczUdGOH-39" value="" style="endArrow=classic;html=1;rounded=0;entryX=0.5;entryY=0;entryDx=0;entryDy=0;" edge="1" parent="1" source="Wl3SrOmknFKyQczUdGOH-4" target="Wl3SrOmknFKyQczUdGOH-17">
          <mxGeometry width="50" height="50" relative="1" as="geometry">
            <mxPoint x="50" y="360" as="sourcePoint" />
            <mxPoint x="100" y="310" as="targetPoint" />
          </mxGeometry>
        </mxCell>
        <mxCell id="Wl3SrOmknFKyQczUdGOH-40" value="" style="endArrow=classic;html=1;rounded=0;entryX=0.5;entryY=0;entryDx=0;entryDy=0;" edge="1" parent="1" source="Wl3SrOmknFKyQczUdGOH-4" target="Wl3SrOmknFKyQczUdGOH-18">
          <mxGeometry width="50" height="50" relative="1" as="geometry">
            <mxPoint x="390" y="190" as="sourcePoint" />
            <mxPoint x="440" y="140" as="targetPoint" />
          </mxGeometry>
        </mxCell>
      </root>
    </mxGraphModel>
  </diagram>
</mxfile>
